<?xml version="1.0" encoding="UTF-8"?>
<svg viewBox="0 0 1200 800" xmlns="http://www.w3.org/2000/svg">
<style>@import url('https://fonts.googleapis.com/css2?family=Fredoka:wght@500;600;700');text{font-family:'Fredoka','Baloo 2','Comic Sans MS',sans-serif;font-weight:600;}</style>
  <defs>
    <radialGradient id="frameVig" cx="50%" cy="50%" r="72%">
      <stop offset="55%" stop-color="#4c1d95" stop-opacity="0"/>
      <stop offset="100%" stop-color="#2e1065" stop-opacity="0.55"/>
    </radialGradient>
    <linearGradient id="metal" x1="0" y1="0" x2="0" y2="1">
      <stop offset="0" stop-color="#7c3aed"/>
      <stop offset="1" stop-color="#4c1d95"/>
    </linearGradient>
    <linearGradient id="metalLight" x1="0" y1="0" x2="0" y2="1">
      <stop offset="0" stop-color="#a78bfa"/>
      <stop offset="1" stop-color="#6d28d9"/>
    </linearGradient>
    <radialGradient id="slime" cx="50%" cy="38%" r="68%">
      <stop offset="0" stop-color="#7CFF4F"/>
      <stop offset="58%" stop-color="#39ff14"/>
      <stop offset="100%" stop-color="#4ade80"/>
    </radialGradient>
    <linearGradient id="tankSlime" x1="0" y1="0" x2="0" y2="1">
      <stop offset="0" stop-color="#7CFF4F"/>
      <stop offset="1" stop-color="#39ff14"/>
    </linearGradient>
    <radialGradient id="slimeGlow" cx="50%" cy="50%" r="50%">
      <stop offset="0" stop-color="#7CFF4F" stop-opacity="0.85"/>
      <stop offset="100%" stop-color="#39ff14" stop-opacity="0"/>
    </radialGradient>
  </defs>

  <!-- ===== FRAME / MOLDURA ===== -->
  <rect x="0" y="0" width="1200" height="800" fill="#0d061f"/>
  <rect x="12" y="12" width="1176" height="776" rx="42" fill="#4c1d95" stroke="#1e1b4b" stroke-width="7"/>
  <rect x="30" y="30" width="1140" height="740" rx="30" fill="#f5efe6" stroke="#1e1b4b" stroke-width="5"/>
  <rect x="30" y="30" width="1140" height="740" rx="30" fill="url(#frameVig)"/>

  <!-- ===== STREETS / RUAS (base) ===== -->
  <g>
    <rect x="60" y="230" width="1080" height="30" rx="12" fill="#efe7d8" stroke="#1e1b4b" stroke-width="3"/>
    <rect x="60" y="502" width="1080" height="32" rx="12" fill="#efe7d8" stroke="#1e1b4b" stroke-width="3"/>
    <rect x="394" y="232" width="30" height="300" rx="12" fill="#efe7d8" stroke="#1e1b4b" stroke-width="3"/>
    <rect x="774" y="232" width="32" height="300" rx="12" fill="#efe7d8" stroke="#1e1b4b" stroke-width="3"/>
    <line x1="74" y1="245" x2="1126" y2="245" stroke="#fbbf24" stroke-width="3" stroke-dasharray="16 14" stroke-linecap="round"/>
    <line x1="74" y1="518" x2="1126" y2="518" stroke="#fbbf24" stroke-width="3" stroke-dasharray="16 14" stroke-linecap="round"/>
    <line x1="409" y1="246" x2="409" y2="520" stroke="#fbbf24" stroke-width="3" stroke-dasharray="14 12" stroke-linecap="round"/>
    <line x1="790" y1="246" x2="790" y2="520" stroke="#fbbf24" stroke-width="3" stroke-dasharray="14 12" stroke-linecap="round"/>
  </g>

  <!-- ===== ROAD SLIME RIVERS ===== -->
  <g stroke="#166534" stroke-width="4">
    <rect x="430" y="233" width="380" height="24" rx="12" fill="url(#slime)" opacity="0.42"/>
    <rect x="396" y="298" width="28" height="212" rx="13" fill="url(#slime)" opacity="0.55"/>
    <rect x="776" y="262" width="30" height="248" rx="15" fill="url(#slime)" opacity="0.88"/>
    <rect x="402" y="506" width="726" height="26" rx="13" fill="url(#slime)" opacity="0.8"/>
  </g>

  <!-- ===== EPICENTER GLOW (under tanks) ===== -->
  <circle cx="945" cy="450" r="200" fill="url(#slimeGlow)"/>

  <!-- ===== PATIO INDUSTRIAL ===== -->
  <g>
    <!-- galpão A -->
    <rect x="116" y="356" width="156" height="120" rx="16" fill="#1e1b4b"/>
    <rect x="110" y="350" width="156" height="120" rx="16" fill="url(#metal)" stroke="#1e1b4b" stroke-width="6"/>
    <rect x="102" y="332" width="172" height="34" rx="16" fill="#6d28d9" stroke="#1e1b4b" stroke-width="5"/>
    <circle cx="132" cy="384" r="11" fill="#7CFF4F" stroke="#166534" stroke-width="3"/>
    <rect x="150" y="400" width="74" height="70" rx="8" fill="#2e1065" stroke="#1e1b4b" stroke-width="4"/>
    <line x1="156" y1="422" x2="218" y2="422" stroke="#4c1d95" stroke-width="3"/>
    <line x1="156" y1="440" x2="218" y2="440" stroke="#4c1d95" stroke-width="3"/>
    <line x1="156" y1="458" x2="218" y2="458" stroke="#4c1d95" stroke-width="3"/>
    <!-- galpão B -->
    <rect x="294" y="378" width="100" height="96" rx="14" fill="#1e1b4b"/>
    <rect x="288" y="372" width="100" height="96" rx="14" fill="url(#metalLight)" stroke="#1e1b4b" stroke-width="5"/>
    <rect x="282" y="356" width="112" height="26" rx="12" fill="#4c1d95" stroke="#1e1b4b" stroke-width="4"/>
    <rect x="312" y="408" width="52" height="60" rx="6" fill="#2e1065" stroke="#1e1b4b" stroke-width="3"/>
    <!-- cargo containers -->
    <rect x="104" y="478" width="46" height="28" rx="4" fill="#fbbf24" stroke="#1e1b4b" stroke-width="3"/>
    <rect x="152" y="478" width="46" height="28" rx="4" fill="#fb7185" stroke="#1e1b4b" stroke-width="3"/>
    <rect x="128" y="448" width="46" height="28" rx="4" fill="#38bdf8" stroke="#1e1b4b" stroke-width="3"/>
  </g>
  <!-- patio slime poças (médio) -->
  <g transform="translate(214,490) scale(1.05)"><path d="M0,-30 C16,-34 34,-18 30,0 C36,18 18,36 0,30 C-18,36 -36,16 -30,-2 C-34,-20 -18,-34 0,-30 Z" fill="url(#slime)" stroke="#166534" stroke-width="5" opacity="0.72"/><circle cx="-7" cy="-5" r="6" fill="#7CFF4F" opacity="0.85"/></g>
  <g transform="translate(150,452) scale(0.62)"><path d="M0,-30 C16,-34 34,-18 30,0 C36,18 18,36 0,30 C-18,36 -36,16 -30,-2 C-34,-20 -18,-34 0,-30 Z" fill="url(#slime)" stroke="#166534" stroke-width="6" opacity="0.6"/></g>
  <g transform="translate(345,486) scale(0.7)"><path d="M0,-30 C16,-34 34,-18 30,0 C36,18 18,36 0,30 C-18,36 -36,16 -30,-2 C-34,-20 -18,-34 0,-30 Z" fill="url(#slime)" stroke="#166534" stroke-width="6" opacity="0.66"/><circle cx="6" cy="4" r="6" fill="#4ade80" opacity="0.8"/></g>

  <!-- ===== FABRICA CENTRAL ===== -->
  <g>
    <!-- chimneys -->
    <rect x="472" y="244" width="52" height="16" rx="6" fill="#2e1065" stroke="#1e1b4b" stroke-width="4"/>
    <rect x="478" y="250" width="40" height="74" rx="8" fill="url(#metalLight)" stroke="#1e1b4b" stroke-width="5"/>
    <rect x="676" y="244" width="52" height="16" rx="6" fill="#2e1065" stroke="#1e1b4b" stroke-width="4"/>
    <rect x="682" y="250" width="40" height="74" rx="8" fill="url(#metalLight)" stroke="#1e1b4b" stroke-width="5"/>
    <!-- smoke -->
    <circle cx="500" cy="236" r="14" fill="#a78bfa" stroke="#1e1b4b" stroke-width="3" opacity="0.85"/>
    <circle cx="485" cy="223" r="10" fill="#a78bfa" stroke="#1e1b4b" stroke-width="3" opacity="0.8"/>
    <circle cx="704" cy="236" r="14" fill="#a78bfa" stroke="#1e1b4b" stroke-width="3" opacity="0.85"/>
    <circle cx="719" cy="223" r="10" fill="#a78bfa" stroke="#1e1b4b" stroke-width="3" opacity="0.8"/>
    <!-- body -->
    <rect x="454" y="328" width="304" height="178" rx="20" fill="#1e1b4b"/>
    <rect x="448" y="322" width="304" height="178" rx="20" fill="url(#metal)" stroke="#1e1b4b" stroke-width="6"/>
    <rect x="440" y="302" width="320" height="34" rx="16" fill="#4c1d95" stroke="#1e1b4b" stroke-width="5"/>
    <!-- dome -->
    <ellipse cx="600" cy="300" rx="66" ry="40" fill="url(#metalLight)" stroke="#1e1b4b" stroke-width="6"/>
    <rect x="576" y="286" width="48" height="24" rx="8" fill="#7CFF4F" stroke="#166534" stroke-width="3"/>
    <circle cx="600" cy="258" r="22" fill="url(#slimeGlow)"/>
    <line x1="600" y1="262" x2="600" y2="298" stroke="#1e1b4b" stroke-width="5"/>
    <circle cx="600" cy="256" r="12" fill="#7CFF4F" stroke="#166534" stroke-width="4"/>
    <!-- neon windows -->
    <rect x="466" y="372" width="34" height="30" rx="6" fill="#7CFF4F" stroke="#166534" stroke-width="3" opacity="0.95"/>
    <rect x="510" y="372" width="34" height="30" rx="6" fill="#7CFF4F" stroke="#166534" stroke-width="3" opacity="0.95"/>
    <rect x="656" y="372" width="34" height="30" rx="6" fill="#7CFF4F" stroke="#166534" stroke-width="3" opacity="0.95"/>
    <rect x="700" y="372" width="34" height="30" rx="6" fill="#7CFF4F" stroke="#166534" stroke-width="3" opacity="0.95"/>
    <!-- gate -->
    <rect x="556" y="418" width="88" height="82" rx="10" fill="#2e1065" stroke="#1e1b4b" stroke-width="5"/>
    <rect x="562" y="424" width="76" height="70" rx="8" fill="none" stroke="#7CFF4F" stroke-width="3" opacity="0.8"/>
    <!-- pipes to tanks -->
    <path d="M752,392 H828" stroke="#1e1b4b" stroke-width="26" stroke-linecap="round"/>
    <path d="M752,392 H828" stroke="#6d28d9" stroke-width="18" stroke-linecap="round"/>
    <path d="M752,392 H828" stroke="#7CFF4F" stroke-width="6" stroke-linecap="round" opacity="0.85"/>
    <path d="M752,444 H812" stroke="#1e1b4b" stroke-width="22" stroke-linecap="round"/>
    <path d="M752,444 H812" stroke="#6d28d9" stroke-width="14" stroke-linecap="round"/>
  </g>
  <!-- factory slime leak from gate -->
  <path d="M548,498 C540,520 560,540 600,536 C648,544 680,520 668,498 C700,512 700,540 660,556 C600,568 540,560 524,540 C516,520 528,504 548,498 Z" fill="url(#slime)" stroke="#166534" stroke-width="6" opacity="0.92"/>
  <circle cx="582" cy="524" r="8" fill="#7CFF4F" opacity="0.9"/>
  <circle cx="630" cy="530" r="6" fill="#4ade80" opacity="0.85"/>

  <!-- ===== TANQUES DE GOSMA (epicentro) ===== -->
  <g>
    <!-- back tank -->
    <rect x="908" y="320" width="74" height="120" rx="20" fill="url(#metal)" stroke="#1e1b4b" stroke-width="5"/>
    <ellipse cx="945" cy="322" rx="37" ry="14" fill="url(#tankSlime)" stroke="#166534" stroke-width="4"/>
    <!-- front-left tank -->
    <rect x="830" y="346" width="80" height="140" rx="24" fill="#1e1b4b"/>
    <rect x="824" y="340" width="80" height="140" rx="24" fill="url(#metalLight)" stroke="#1e1b4b" stroke-width="6"/>
    <rect x="824" y="404" width="80" height="14" fill="#39ff14" opacity="0.6"/>
    <ellipse cx="864" cy="340" rx="40" ry="15" fill="url(#tankSlime)" stroke="#166534" stroke-width="5"/>
    <path d="M828,344 C824,372 826,400 838,420 C846,400 842,366 850,346 Z" fill="#7CFF4F" stroke="#166534" stroke-width="4" opacity="0.92"/>
    <!-- front-right tank -->
    <rect x="996" y="356" width="80" height="130" rx="22" fill="#1e1b4b"/>
    <rect x="990" y="350" width="80" height="130" rx="22" fill="url(#metalLight)" stroke="#1e1b4b" stroke-width="6"/>
    <ellipse cx="1030" cy="350" rx="40" ry="15" fill="url(#tankSlime)" stroke="#166534" stroke-width="5"/>
    <path d="M1066,354 C1072,382 1070,410 1058,430 C1050,410 1054,378 1046,356 Z" fill="#7CFF4F" stroke="#166534" stroke-width="4" opacity="0.92"/>
    <circle cx="858" cy="338" r="6" fill="#7CFF4F" opacity="0.9"/>
    <circle cx="1024" cy="348" r="6" fill="#7CFF4F" opacity="0.9"/>
  </g>
  <!-- tanks overflow pool (heaviest) -->
  <path d="M812,470 C870,452 920,460 950,452 C1010,440 1060,458 1108,468 C1126,486 1120,520 1080,524 C1000,536 920,528 860,524 C816,520 794,496 812,470 Z" fill="url(#slime)" stroke="#166534" stroke-width="7" opacity="1"/>
  <circle cx="900" cy="492" r="10" fill="#7CFF4F" opacity="0.9"/>
  <circle cx="980" cy="500" r="13" fill="#4ade80" opacity="0.85"/>
  <circle cx="1040" cy="490" r="8" fill="#7CFF4F" opacity="0.9"/>
  <circle cx="858" cy="500" r="7" fill="#39ff14"/>

  <!-- ===== BAIRRO OPERARIO (casas) ===== -->
  <g stroke-linejoin="round">
    <g transform="translate(248,150)"><rect x="10" y="20" width="84" height="56" rx="10" fill="#1e1b4b"/><rect x="4" y="16" width="84" height="56" rx="10" fill="#fdfaf6" stroke="#1e1b4b" stroke-width="4"/><path d="M-4,22 L46,-12 L96,22 Z" fill="#ef4444" stroke="#1e1b4b" stroke-width="4"/><rect x="34" y="40" width="22" height="32" rx="5" fill="#6d28d9" stroke="#1e1b4b" stroke-width="3"/><rect x="62" y="36" width="20" height="18" rx="4" fill="#fbbf24" stroke="#1e1b4b" stroke-width="3"/></g>
    <g transform="translate(356,150)"><rect x="10" y="20" width="84" height="56" rx="10" fill="#1e1b4b"/><rect x="4" y="16" width="84" height="56" rx="10" fill="#efe7d8" stroke="#1e1b4b" stroke-width="4"/><path d="M-4,22 L46,-12 L96,22 Z" fill="#ef4444" stroke="#1e1b4b" stroke-width="4"/><rect x="34" y="40" width="22" height="32" rx="5" fill="#6d28d9" stroke="#1e1b4b" stroke-width="3"/><rect x="62" y="36" width="20" height="18" rx="4" fill="#38bdf8" stroke="#1e1b4b" stroke-width="3"/></g>
    <g transform="translate(464,150)"><rect x="10" y="20" width="84" height="56" rx="10" fill="#1e1b4b"/><rect x="4" y="16" width="84" height="56" rx="10" fill="#fdfaf6" stroke="#1e1b4b" stroke-width="4"/><path d="M-4,22 L46,-12 L96,22 Z" fill="#ef4444" stroke="#1e1b4b" stroke-width="4"/><rect x="34" y="40" width="22" height="32" rx="5" fill="#6d28d9" stroke="#1e1b4b" stroke-width="3"/><rect x="62" y="36" width="20" height="18" rx="4" fill="#fbbf24" stroke="#1e1b4b" stroke-width="3"/></g>
    <g transform="translate(572,150)"><rect x="10" y="20" width="84" height="56" rx="10" fill="#1e1b4b"/><rect x="4" y="16" width="84" height="56" rx="10" fill="#efe7d8" stroke="#1e1b4b" stroke-width="4"/><path d="M-4,22 L46,-12 L96,22 Z" fill="#ef4444" stroke="#1e1b4b" stroke-width="4"/><rect x="34" y="40" width="22" height="32" rx="5" fill="#6d28d9" stroke="#1e1b4b" stroke-width="3"/><rect x="62" y="36" width="20" height="18" rx="4" fill="#38bdf8" stroke="#1e1b4b" stroke-width="3"/></g>
    <g transform="translate(756,150)"><rect x="10" y="20" width="84" height="56" rx="10" fill="#1e1b4b"/><rect x="4" y="16" width="84" height="56" rx="10" fill="#fdfaf6" stroke="#1e1b4b" stroke-width="4"/><path d="M-4,22 L46,-12 L96,22 Z" fill="#ef4444" stroke="#1e1b4b" stroke-width="4"/><rect x="34" y="40" width="22" height="32" rx="5" fill="#6d28d9" stroke="#1e1b4b" stroke-width="3"/><rect x="62" y="36" width="20" height="18" rx="4" fill="#fbbf24" stroke="#1e1b4b" stroke-width="3"/></g>
    <g transform="translate(864,150)"><rect x="10" y="20" width="84" height="56" rx="10" fill="#1e1b4b"/><rect x="4" y="16" width="84" height="56" rx="10" fill="#efe7d8" stroke="#1e1b4b" stroke-width="4"/><path d="M-4,22 L46,-12 L96,22 Z" fill="#ef4444" stroke="#1e1b4b" stroke-width="4"/><rect x="34" y="40" width="22" height="32" rx="5" fill="#6d28d9" stroke="#1e1b4b" stroke-width="3"/><rect x="62" y="36" width="20" height="18" rx="4" fill="#38bdf8" stroke="#1e1b4b" stroke-width="3"/></g>
  </g>
  <!-- bairro light slime (translucent, more near factory side) -->
  <g transform="translate(300,226) scale(0.55)"><path d="M0,-30 C16,-34 34,-18 30,0 C36,18 18,36 0,30 C-18,36 -36,16 -30,-2 C-34,-20 -18,-34 0,-30 Z" fill="url(#slime)" stroke="#166534" stroke-width="6" opacity="0.3"/></g>
  <g transform="translate(508,228) scale(0.6)"><path d="M0,-30 C16,-34 34,-18 30,0 C36,18 18,36 0,30 C-18,36 -36,16 -30,-2 C-34,-20 -18,-34 0,-30 Z" fill="url(#slime)" stroke="#166534" stroke-width="6" opacity="0.38"/></g>
  <g transform="translate(800,228) scale(0.75)"><path d="M0,-30 C16,-34 34,-18 30,0 C36,18 18,36 0,30 C-18,36 -36,16 -30,-2 C-34,-20 -18,-34 0,-30 Z" fill="url(#slime)" stroke="#166534" stroke-width="5" opacity="0.55"/><circle cx="6" cy="3" r="5" fill="#7CFF4F" opacity="0.7"/></g>

  <!-- road junction slime -->
  <g transform="translate(790,518) scale(0.85)"><path d="M0,-30 C16,-34 34,-18 30,0 C36,18 18,36 0,30 C-18,36 -36,16 -30,-2 C-34,-20 -18,-34 0,-30 Z" fill="url(#slime)" stroke="#166534" stroke-width="6" opacity="0.92"/><circle cx="-5" cy="-4" r="6" fill="#7CFF4F" opacity="0.9"/></g>
  <g transform="translate(409,518) scale(0.6)"><path d="M0,-30 C16,-34 34,-18 30,0 C36,18 18,36 0,30 C-18,36 -36,16 -30,-2 C-34,-20 -18,-34 0,-30 Z" fill="url(#slime)" stroke="#166534" stroke-width="7" opacity="0.6"/></g>

  <!-- ===== ZONA TOMADA (totalmente tomada) ===== -->
  <g>
    <!-- ruined buildings behind slime -->
    <rect x="300" y="540" width="78" height="80" rx="8" fill="#4c1d95" stroke="#1e1b4b" stroke-width="5"/>
    <path d="M296,544 L339,516 L382,544 Z" fill="#ef4444" stroke="#1e1b4b" stroke-width="5" stroke-linejoin="round"/>
    <rect x="820" y="536" width="70" height="84" rx="8" fill="#2e1065" stroke="#1e1b4b" stroke-width="5"/>
    <rect x="836" y="552" width="18" height="18" rx="3" fill="#fbbf24" stroke="#1e1b4b" stroke-width="3"/>
    <!-- full slime field -->
    <path d="M70,560 C140,538 200,548 250,560 C320,576 360,540 440,558 C520,576 560,544 640,560 C720,578 770,540 850,560 C930,578 990,544 1075,560 C1110,566 1130,558 1130,584 L1130,632 L70,632 Z" fill="url(#slime)" stroke="#166534" stroke-width="6" opacity="0.96"/>
    <!-- darker depth patches -->
    <path d="M180,600 C220,588 260,592 280,604 C270,620 210,622 180,612 Z" fill="#166534" opacity="0.5"/>
    <path d="M700,604 C744,590 790,596 808,608 C796,624 736,626 700,616 Z" fill="#0d2417" opacity="0.45"/>
    <!-- bubbles -->
    <circle cx="150" cy="590" r="10" fill="#7CFF4F" opacity="0.85"/>
    <circle cx="430" cy="596" r="13" fill="#4ade80" opacity="0.8"/>
    <circle cx="560" cy="606" r="8" fill="#7CFF4F" opacity="0.85"/>
    <circle cx="940" cy="592" r="12" fill="#7CFF4F" opacity="0.85"/>
    <circle cx="1040" cy="602" r="9" fill="#4ade80" opacity="0.8"/>
    <circle cx="660" cy="588" r="7" fill="#39ff14"/>
  </g>
  <!-- creep tongues from H2 into zona -->
  <path d="M340,524 C334,544 348,556 360,548 C372,558 386,544 378,526 Z" fill="url(#slime)" stroke="#166534" stroke-width="5" opacity="0.8"/>
  <path d="M650,524 C644,546 660,558 672,550 C684,560 696,544 686,526 Z" fill="url(#slime)" stroke="#166534" stroke-width="5" opacity="0.85"/>
  <path d="M952,524 C946,548 962,560 974,552 C986,562 998,544 988,526 Z" fill="url(#slime)" stroke="#166534" stroke-width="5" opacity="0.9"/>

  <!-- ===== LABELS / PLAQUINHAS ===== -->
  <g font-family="Fredoka, 'Baloo 2', 'Comic Sans MS', sans-serif" font-weight="700" text-anchor="middle" fill="#1e1b4b">
    <rect x="70" y="160" width="172" height="40" rx="11" fill="#fdfaf6" stroke="#1e1b4b" stroke-width="4"/>
    <text x="156" y="187" font-size="18">Bairro Operário</text>

    <rect x="104" y="290" width="200" height="38" rx="11" fill="#fdfaf6" stroke="#1e1b4b" stroke-width="4"/>
    <text x="204" y="316" font-size="18">Pátio Industrial</text>

    <rect x="494" y="556" width="212" height="40" rx="12" fill="#fdfaf6" stroke="#1e1b4b" stroke-width="4"/>
    <text x="600" y="583" font-size="20">Fábrica Central</text>

    <rect x="848" y="280" width="220" height="38" rx="11" fill="#fdfaf6" stroke="#1e1b4b" stroke-width="4"/>
    <text x="958" y="306" font-size="18">Tanques de Gosma</text>

    <rect x="86" y="574" width="186" height="38" rx="11" fill="#fdfaf6" stroke="#1e1b4b" stroke-width="4"/>
    <text x="179" y="600" font-size="18">Zona Tomada</text>
  </g>

  <!-- ===== TITLE BANNER ===== -->
  <g>
    <polygon points="312,52 268,52 286,77 268,102 312,102" fill="#6d28d9" stroke="#1e1b4b" stroke-width="5" stroke-linejoin="round"/>
    <polygon points="888,52 932,52 914,77 932,102 888,102" fill="#6d28d9" stroke="#1e1b4b" stroke-width="5" stroke-linejoin="round"/>
    <rect x="318" y="50" width="576" height="60" rx="16" fill="#1e1b4b"/>
    <rect x="312" y="44" width="576" height="60" rx="16" fill="#7c3aed" stroke="#1e1b4b" stroke-width="6"/>
    <text x="600" y="86" text-anchor="middle" font-family="Fredoka, 'Baloo 2', 'Comic Sans MS', sans-serif" font-weight="700" font-size="33" fill="#fdfaf6" style="paint-order:stroke" stroke="#1e1b4b" stroke-width="2">Fabrilândia — Cidade-Fábrica</text>
  </g>

  <!-- ===== COMPASS / BUSSOLA ===== -->
  <g>
    <circle cx="1062" cy="191" r="54" fill="#1e1b4b"/>
    <circle cx="1058" cy="187" r="54" fill="#fdfaf6" stroke="#1e1b4b" stroke-width="5"/>
    <polygon points="1058,143 1070,187 1058,231 1046,187" fill="#7c3aed" stroke="#1e1b4b" stroke-width="3" stroke-linejoin="round"/>
    <polygon points="1014,187 1058,175 1102,187 1058,199" fill="#a78bfa" stroke="#1e1b4b" stroke-width="3" stroke-linejoin="round"/>
    <circle cx="1058" cy="187" r="7" fill="#fbbf24" stroke="#1e1b4b" stroke-width="3"/>
    <g font-family="Fredoka, 'Baloo 2', 'Comic Sans MS', sans-serif" font-weight="700" font-size="15" text-anchor="middle" fill="#fdfaf6" style="paint-order:stroke" stroke="#1e1b4b" stroke-width="2.5">
      <text x="1058" y="162">N</text>
      <text x="1058" y="222">S</text>
      <text x="1090" y="193">L</text>
      <text x="1026" y="193">O</text>
    </g>
  </g>

  <!-- ===== LEGEND / LEGENDA ===== -->
  <g>
    <rect x="64" y="642" width="1072" height="118" rx="20" fill="#1e1b4b"/>
    <rect x="58" y="636" width="1072" height="118" rx="20" fill="#fdfaf6" stroke="#1e1b4b" stroke-width="5"/>
    <text x="92" y="668" font-family="Fredoka, 'Baloo 2', 'Comic Sans MS', sans-serif" font-weight="700" font-size="22" fill="#1e1b4b">Legenda</text>

    <g font-family="Fredoka, 'Baloo 2', 'Comic Sans MS', sans-serif" font-weight="600" font-size="16" fill="#1e1b4b">
      <!-- fábrica -->
      <rect x="236" y="682" width="32" height="22" rx="4" fill="url(#metal)" stroke="#1e1b4b" stroke-width="3"/>
      <rect x="242" y="672" width="9" height="12" rx="2" fill="#a78bfa" stroke="#1e1b4b" stroke-width="2"/>
      <text x="278" y="700">Fábrica</text>
      <!-- tanque de gosma -->
      <rect x="392" y="678" width="24" height="28" rx="6" fill="url(#metalLight)" stroke="#1e1b4b" stroke-width="3"/>
      <ellipse cx="404" cy="679" rx="12" ry="5" fill="#7CFF4F" stroke="#166534" stroke-width="2"/>
      <text x="424" y="700">Tanque de Gosma</text>
      <!-- galpão -->
      <rect x="664" y="684" width="32" height="20" rx="4" fill="url(#metal)" stroke="#1e1b4b" stroke-width="3"/>
      <rect x="660" y="676" width="40" height="11" rx="5" fill="#6d28d9" stroke="#1e1b4b" stroke-width="2"/>
      <text x="708" y="700">Galpão</text>
      <!-- casa -->
      <rect x="812" y="686" width="24" height="18" rx="3" fill="#fdfaf6" stroke="#1e1b4b" stroke-width="3"/>
      <path d="M806,687 L824,672 L842,687 Z" fill="#ef4444" stroke="#1e1b4b" stroke-width="3" stroke-linejoin="round"/>
      <text x="850" y="700">Casa</text>
      <!-- rua -->
      <rect x="952" y="684" width="40" height="20" rx="4" fill="#efe7d8" stroke="#1e1b4b" stroke-width="3"/>
      <line x1="956" y1="694" x2="988" y2="694" stroke="#fbbf24" stroke-width="3" stroke-dasharray="6 5"/>
      <text x="1002" y="700">Rua</text>
    </g>

    <g font-family="Fredoka, 'Baloo 2', 'Comic Sans MS', sans-serif" font-weight="600" font-size="16" fill="#1e1b4b">
      <text x="92" y="738" font-weight="700" font-size="17">Níveis de Gosma:</text>
      <circle cx="288" cy="732" r="15" fill="url(#slime)" stroke="#166534" stroke-width="4" opacity="0.4"/>
      <text x="312" y="738">leve</text>
      <circle cx="430" cy="732" r="15" fill="url(#slime)" stroke="#166534" stroke-width="4" opacity="0.72"/>
      <text x="454" y="738">médio</text>
      <circle cx="590" cy="732" r="15" fill="url(#slime)" stroke="#166534" stroke-width="5" opacity="1"/>
      <circle cx="585" cy="728" r="5" fill="#7CFF4F"/>
      <text x="614" y="738">tomado</text>
    </g>
  </g>
</svg>